HIERARCHY
ROOT hip
{
	OFFSET 0.000000 0.000000 0.000000 
	CHANNELS 6 Xposition Yposition Zposition Xrotation Zrotation Yrotation
	JOINT abdomen
	{
		OFFSET 0.000000 3.402643 0.000000 
		CHANNELS 3 Xrotation Zrotation Yrotation
		JOINT chest
		{
			OFFSET 0.000000 8.438565 -0.680529 
			CHANNELS 3 Xrotation Zrotation Yrotation
			JOINT neck
			{
				OFFSET 0.000000 10.207942 -0.272212 
				CHANNELS 3 Xrotation Zrotation Yrotation
				JOINT head
				{
					OFFSET 0.000000 3.130431 0.000000 
					CHANNELS 3 Xrotation Zrotation Yrotation
					End Site
					{
						OFFSET 0.000000 3.130435 0.000000 
					}
				}
			}
			JOINT lCollar
			{
				OFFSET 3.470700 6.669187 -0.816635 
				CHANNELS 3 Yrotation Zrotation Xrotation
				JOINT lShldr
				{
					OFFSET 3.198488 0.000000 0.000000 
					CHANNELS 3 Zrotation Yrotation Xrotation
					JOINT lForeArm
					{
						OFFSET 10.139888 0.000000 0.000000 
						CHANNELS 3 Yrotation Zrotation Xrotation
						JOINT lHand
						{
							OFFSET 8.370511 0.000000 0.000000 
							CHANNELS 3 Zrotation Yrotation Xrotation
							End Site
							{
								OFFSET 4.083176 0.000000 0.000000 
							}
						}
					}
				}
			}
			JOINT rCollar
			{
				OFFSET -3.470700 6.669187 -0.816635 
				CHANNELS 3 Yrotation Zrotation Xrotation
				JOINT rShldr
				{
					OFFSET -3.198488 0.000000 0.000000 
					CHANNELS 3 Zrotation Yrotation Xrotation
					JOINT rForeArm
					{
						OFFSET -10.139888 0.000000 0.000000 
						CHANNELS 3 Yrotation Zrotation Xrotation
						JOINT rHand
						{
							OFFSET -8.370511 0.000000 0.000000 
							CHANNELS 3 Zrotation Yrotation Xrotation
							End Site
							{
								OFFSET -4.083176 0.000000 0.000000 
							}
						}
					}
				}
			}
		}
	}
	JOINT lThigh
	{
		OFFSET 5.308129 -1.633274 1.361059 
		CHANNELS 3 Xrotation Zrotation Yrotation
		JOINT lShin
		{
			OFFSET -2.041588 -20.007561 0.000000 
			CHANNELS 3 Xrotation Zrotation Yrotation
			JOINT lFoot
			{
				OFFSET 0.000000 -19.190928 -1.224953 
				CHANNELS 3 Xrotation Yrotation Zrotation
				End Site
				{
					OFFSET 0.000000 -2.449906 4.627600 
				}
			}
		}
	}
	JOINT rThigh
	{
		OFFSET -5.308129 -1.633274 1.361059 
		CHANNELS 3 Xrotation Zrotation Yrotation
		JOINT rShin
		{
			OFFSET 2.041588 -20.007561 0.000000 
			CHANNELS 3 Xrotation Zrotation Yrotation
			JOINT rFoot
			{
				OFFSET 0.000000 -19.190928 -1.224953 
				CHANNELS 3 Xrotation Yrotation Zrotation
				End Site
				{
					OFFSET 0.000000 -2.449906 4.627600 
				}
			}
		}
	}
}
MOTION
Frames: 11
Frame Time: 0.033333
-3.114139 49.472618 1.336921 -3.132293 -2.389659 -5.894119 0.000000 0.000000 0.000000 0.837418 0.058543 -2.373046 -12.295863 6.415531 -0.707451 14.431046 -0.409561 3.085998 -3.521967 9.154817 6.304141 -5.040036 -42.672230 -55.599117 -35.958828 19.418768 17.447557 20.708176 4.424941 -9.450837 3.089181 -14.089146 8.026228 28.981796 27.046761 -66.111687 73.311989 12.713130 63.816704 0.460355 -4.107444 -8.293427 -11.227235 17.715273 14.965016 40.952950 -4.270324 -15.596590 0.600188 0.669465 -11.484930 -3.323779 0.869361 -9.397662 24.025311 0.829465 -2.097721 -14.520061 0.707931 -4.616492 
-3.231051 49.515694 1.442608 -3.306397 -2.287919 -6.919829 0.000000 0.000000 0.000000 0.982520 0.156204 -1.396479 -13.289118 6.376781 -0.421662 15.097023 -0.506930 3.379033 -3.521967 9.154817 6.304141 -5.924074 -47.843124 -54.523209 -36.592293 18.956909 19.016293 20.129349 3.742280 -9.481845 3.089181 -14.089146 8.026228 31.936239 29.856342 -63.009880 78.795357 13.696993 61.566677 0.297058 -4.131271 -8.300986 -13.786233 18.362627 14.670385 44.954193 -3.626673 -15.417379 1.458641 0.656915 -13.549373 -2.888271 0.781169 -9.379054 23.678244 0.858176 -0.969550 -14.367130 0.696161 -4.719915 
-3.248944 49.596607 1.613068 -3.600558 -2.106855 -8.257824 0.000000 0.000000 0.000000 1.367061 0.039062 -0.185547 -14.489292 6.601464 -0.313796 15.812998 -0.877111 3.662427 -3.521967 9.154817 6.304141 -6.008749 -52.919369 -54.137318 -35.495045 19.329327 20.443722 19.779310 3.404685 -9.490937 3.089181 -14.089146 8.026228 35.348228 32.730907 -59.450539 82.880470 14.057364 61.032120 1.642559 -4.026742 -8.202612 -15.164621 18.327272 14.329131 46.323860 -3.450621 -17.074883 0.957788 0.677774 -12.822756 -2.179649 0.469786 -9.420885 23.135780 0.794600 0.229486 -14.127378 0.685611 -4.613540 
-3.187550 49.679382 1.842687 -3.750085 -1.653963 -10.043293 0.000000 0.000000 0.000000 1.615378 -0.331982 0.986312 -15.888906 6.630831 0.167160 16.636457 -0.866872 4.141037 -3.521967 9.154817 6.304141 -5.677402 -56.258957 -53.734093 -34.855148 19.218092 20.047779 20.483837 3.048433 -9.593942 3.089181 -14.089146 8.026228 37.849373 36.184376 -55.255318 85.315247 13.817533 61.211098 1.534919 -3.628060 -8.178272 -15.868847 17.802090 14.002646 45.416378 -3.789435 -19.097826 0.456237 0.692814 -11.564161 -1.932016 -0.321663 -9.679029 23.211210 0.624813 2.235859 -14.022599 0.670135 -4.346807 
-3.075717 49.717209 2.074299 -3.623108 -1.241866 -11.985280 0.000000 0.000000 0.000000 1.454059 -0.858840 2.021696 -16.555300 7.001548 0.620170 16.607502 -0.982918 4.766263 -3.521967 9.154817 6.304141 -4.624405 -59.132023 -53.431065 -33.646362 19.633747 19.258879 21.721703 3.302953 -9.665217 3.089181 -14.089146 8.026228 41.063198 39.143051 -49.852955 86.959267 13.234969 60.661541 0.365982 -3.213141 -8.230452 -16.639969 17.205917 13.398487 43.126942 -4.144832 -20.951923 0.362232 0.649263 -10.999715 -1.792420 -0.952926 -9.703237 22.844358 0.420026 3.768690 -14.439561 0.770302 -4.725210 
-2.910770 49.692593 2.310077 -3.462171 -0.929174 -13.859365 0.000000 0.000000 0.000000 1.563163 -1.638305 3.047862 -18.201593 7.987977 0.504071 17.081730 -1.652944 5.343793 -3.521967 9.154817 6.304141 -2.077329 -61.102894 -54.561359 -33.434254 19.392275 18.572454 21.862791 3.290217 -9.672006 3.089181 -14.089146 8.026228 44.370022 40.907360 -45.306835 88.930672 12.888984 58.874264 -0.541097 -2.654442 -8.268006 -16.932917 16.668839 12.662754 39.245823 -4.454504 -23.431234 0.479177 0.632286 -10.439766 -2.134733 -1.675034 -9.886170 23.373075 0.244488 5.636595 -14.772137 0.805302 -4.951283 
-2.736310 49.649990 2.557868 -3.320266 -0.874763 -15.597713 0.000000 0.000000 0.000000 1.925454 -1.987604 3.888779 -20.104723 8.261326 0.563493 17.378981 -1.525819 5.626900 -3.521967 9.154817 6.304141 0.873272 -62.860840 -56.492630 -32.519798 19.956707 18.326025 21.982079 3.170866 -9.689792 3.089181 -14.089146 8.026228 46.661415 43.097332 -41.898994 90.665916 12.560990 58.425411 -0.117352 -2.464003 -8.219996 -17.087992 16.393818 11.645330 34.771912 -4.489837 -25.427231 0.653312 0.577966 -10.194376 -2.342890 -2.108227 -9.858846 23.787310 -0.068279 7.355143 -14.832397 0.863481 -5.162456 
-2.546952 49.577114 2.806609 -3.051722 -0.933096 -17.160627 0.000000 0.000000 0.000000 2.429797 -1.821626 4.044958 -22.085720 8.211851 0.918418 17.699530 -1.447116 5.997874 -3.521967 9.154817 6.304141 2.966976 -63.155140 -58.821556 -32.315716 20.162804 17.692884 22.671652 3.264237 -9.745481 3.089181 -14.089146 8.026228 49.611610 45.728310 -38.232941 92.531288 12.424965 58.210083 0.500929 -2.591840 -8.188394 -17.191824 16.281815 10.628066 29.850864 -4.259330 -27.344688 0.552957 0.551777 -9.154637 -2.809758 -2.311160 -9.713377 24.499132 -0.439161 8.797503 -15.036415 0.933967 -5.434443 
-2.354357 49.472488 3.068140 -2.770384 -1.120851 -18.460821 0.000000 0.000000 0.000000 2.935120 -1.539595 3.790316 -24.174177 8.338284 1.115924 18.572363 -1.339469 6.320050 -3.521967 9.154817 6.304141 5.601734 -63.651627 -61.993073 -30.791948 21.124638 16.581646 23.135187 3.519337 -9.749976 3.089181 -14.089146 8.026228 53.700459 48.237122 -33.682030 93.750984 12.155569 58.169888 0.628133 -2.524353 -8.164618 -17.576571 16.316387 9.490653 25.718025 -3.756214 -29.839878 0.495231 0.509268 -8.629969 -3.199326 -2.320193 -9.457143 25.100554 -0.828918 9.605048 -15.213783 1.055736 -5.865621 
-2.111406 49.291237 3.362966 -2.539850 -1.260513 -19.585030 0.000000 0.000000 0.000000 3.549937 -1.764610 3.321744 -26.000420 8.856440 0.860528 19.142178 -1.271062 6.505332 -3.521967 9.154817 6.304141 9.592631 -64.264030 -66.568039 -28.959343 22.255999 15.284804 23.509295 3.773517 -9.740463 3.089181 -14.089146 8.026228 58.667248 50.006290 -28.617455 94.409805 11.758171 58.357628 0.518266 -2.845850 -8.199629 -18.396900 16.375154 8.481416 23.750742 -3.182251 -32.929043 0.144851 0.526366 -7.964091 -3.577576 -2.337651 -9.122286 25.910326 -1.433891 10.349730 -15.630543 1.196175 -6.674858 
-1.814578 49.034889 3.752375 -2.897364 -1.390105 -20.533823 0.000000 0.000000 0.000000 4.984738 -2.321476 2.785268 -28.144430 9.140206 0.555444 19.917229 -0.979942 6.524317 -3.521967 9.154817 6.304141 14.051202 -64.711983 -72.159584 -27.461554 23.469494 15.569688 23.032610 3.655189 -9.712710 3.089181 -14.089146 8.026228 63.459351 51.495434 -23.416941 94.965103 11.379472 57.042297 0.417138 -3.689310 -8.261770 -18.631027 16.082027 7.728903 23.508348 -2.673895 -35.149761 -0.180992 0.491419 -7.294942 -3.988536 -2.660683 -8.975517 28.093201 -2.372465 11.016825 -16.240131 1.348422 -7.338482 
